<svg width="100%" viewBox="0 0 680 260" xmlns="http://www.w3.org/2000/svg" role="img">
<title>Decorative GitHub Skyline placeholder</title>
<desc>A stylized city skyline silhouette in cyan and navy tones.</desc>
<defs>
<linearGradient id="sky" x1="0" y1="0" x2="0" y2="1">
<stop offset="0%" stop-color="#0f2027"/>
<stop offset="50%" stop-color="#2c5364"/>
<stop offset="100%" stop-color="#00c9ff"/>
</linearGradient>
</defs>
<rect x="0" y="0" width="680" height="260" fill="url(#sky)"/>
<circle cx="580" cy="60" r="26" fill="#ffffff" opacity="0.15"/>
<g fill="#0a1620" opacity="0.9">
<rect x="20" y="150" width="40" height="100"/>
<rect x="70" y="120" width="35" height="130"/>
<rect x="115" y="170" width="30" height="80"/>
<rect x="155" y="90" width="45" height="160"/>
<rect x="210" y="140" width="35" height="110"/>
<rect x="255" y="60" width="50" height="190"/>
<rect x="315" y="110" width="40" height="140"/>
<rect x="365" y="150" width="30" height="100"/>
<rect x="405" y="80" width="45" height="170"/>
<rect x="460" y="130" width="35" height="120"/>
<rect x="505" y="170" width="30" height="80"/>
<rect x="545" y="100" width="45" height="150"/>
<rect x="600" y="140" width="35" height="110"/>
<rect x="645" y="180" width="25" height="70"/>
</g>
<g fill="#00c9ff" opacity="0.85">
<rect x="30" y="165" width="6" height="6"/>
<rect x="45" y="165" width="6" height="6"/>
<rect x="30" y="185" width="6" height="6"/>
<rect x="80" y="140" width="6" height="6"/>
<rect x="80" y="160" width="6" height="6"/>
<rect x="165" y="110" width="6" height="6"/>
<rect x="180" y="110" width="6" height="6"/>
<rect x="165" y="130" width="6" height="6"/>
<rect x="180" y="150" width="6" height="6"/>
<rect x="265" y="80" width="6" height="6"/>
<rect x="280" y="80" width="6" height="6"/>
<rect x="265" y="100" width="6" height="6"/>
<rect x="280" y="120" width="6" height="6"/>
<rect x="265" y="140" width="6" height="6"/>
<rect x="325" y="130" width="6" height="6"/>
<rect x="340" y="130" width="6" height="6"/>
<rect x="415" y="100" width="6" height="6"/>
<rect x="430" y="100" width="6" height="6"/>
<rect x="415" y="120" width="6" height="6"/>
<rect x="430" y="140" width="6" height="6"/>
<rect x="555" y="120" width="6" height="6"/>
<rect x="570" y="120" width="6" height="6"/>
<rect x="555" y="140" width="6" height="6"/>
</g>
<rect x="0" y="245" width="680" height="15" fill="#050b10"/>
</svg>
